<svg xmlns="http://www.w3.org/2000/svg" width="480" height="186" viewBox="0 0 480 186" role="img" aria-labelledby="title desc">
  <title id="title">Asuka Miyachi</title>
  <desc id="desc">Compact Japanese-inspired mobile hero with sakura, paper texture, and elegant romanized typography.</desc>
  <defs>
    <linearGradient id="paper" x1="0" y1="0" x2="1" y2="1"><stop offset="0" stop-color="#fbf6ea"/><stop offset="1" stop-color="#f1e5cc"/></linearGradient>
    <pattern id="seigaiha" width="24" height="12" patternUnits="userSpaceOnUse"><path d="M0 12C0 5.4 5.4 0 12 0s12 5.4 12 12M6 12c0-3.3 2.7-6 6-6s6 2.7 6 6" fill="none" stroke="#e5d1a8" stroke-width="1"/></pattern>
    <g id="petal"><path d="M0 0C4 -3 9 -2 12 2C10 7 5 9 0 8C-2 4 -2 2 0 0Z" fill="#e9b0ac" opacity="0.78"/></g>
    <g id="blossom">
      <circle cx="0" cy="-7" r="6" fill="#fff9f4" stroke="#e7a7a2" stroke-width="0.8"/><circle cx="6" cy="-2" r="6" fill="#fff9f4" stroke="#e7a7a2" stroke-width="0.8"/><circle cx="4.2" cy="5.3" r="6" fill="#fff9f4" stroke="#e7a7a2" stroke-width="0.8"/><circle cx="-4.2" cy="5.3" r="6" fill="#fff9f4" stroke="#e7a7a2" stroke-width="0.8"/><circle cx="-6" cy="-2" r="6" fill="#fff9f4" stroke="#e7a7a2" stroke-width="0.8"/><circle cx="0" cy="0" r="2" fill="#c86d67"/>
    </g>
  </defs>
  <rect width="480" height="186" fill="url(#paper)"/><rect x="0.75" y="0.75" width="478.5" height="184.5" fill="none" stroke="#0f1a2b" stroke-width="1.5"/>
  <rect x="0" y="0" width="134" height="186" fill="url(#seigaiha)" opacity="0.84"/><rect x="330" y="106" width="150" height="80" fill="url(#seigaiha)" opacity="0.56"/>
  <g opacity="0.72" stroke="#cbb78d" stroke-width="0.9"><path d="M356 0V186M388 0V186M420 0V186M452 0V186"/><path d="M330 40H480M330 82H480M330 124H480"/></g>
  <circle cx="405" cy="80" r="54" fill="#ead7ad" opacity="0.26"/>
  <g transform="translate(114 92) rotate(-15)"><circle r="61" fill="none" stroke="#c9a560" stroke-width="10" stroke-linecap="round" stroke-dasharray="286 94" opacity="0.82"/></g>
  <path d="M-24 152C16 146 39 137 62 120c15-11 28-22 47-31" fill="none" stroke="#5e4c3e" stroke-width="4" stroke-linecap="round"/>
  <use href="#blossom" transform="translate(40 137) scale(1.05)"/><use href="#blossom" transform="translate(73 115) scale(0.7)"/><use href="#blossom" transform="translate(96 101) scale(0.54)"/>
  <g opacity="0.95"><path d="M20 102H458" fill="none" stroke="#b59d74" stroke-width="1"/><circle cx="453" cy="102" r="4.6" fill="#d34430"/></g>
  <path d="M31 83C42 77 54 73 67 70" fill="none" stroke="#d63b2c" stroke-width="5.3" stroke-linecap="round"/><path d="M33 85C46 79 58 76 72 73" fill="none" stroke="#ee7f54" stroke-width="1.7" stroke-linecap="round" opacity="0.72"/>
  <text x="60" y="77" fill="#253b55" font-family="Georgia,'Times New Roman',serif" font-size="48" letter-spacing="1.2" textLength="174" lengthAdjust="spacingAndGlyphs">ASUKA</text>
  <text x="60" y="124" fill="#253b55" font-family="Georgia,'Times New Roman',serif" font-size="48" letter-spacing="1.2" textLength="232" lengthAdjust="spacingAndGlyphs">MIYACHI</text>
  <g transform="translate(394 128)"><rect width="32" height="32" fill="none" stroke="#d34131" stroke-width="2"/><rect x="4" y="4" width="24" height="24" fill="#d34131" opacity="0.08"/><path d="M7 24V8h7v16M7 18h7M19 24V8l3 6 3-6v16" fill="none" stroke="#d34131" stroke-width="1.7"/></g>
  <g fill="#d6b266"><path d="M246 26l3 3 3-3-3-3-3 3Zm178 25l3 3 3-3-3-3-3 3Zm-116 112l3 3 3-3-3-3-3 3Z"/></g>
  <use href="#petal" transform="translate(237 28) rotate(-14) scale(0.84)"/><use href="#petal" transform="translate(289 140) rotate(-10) scale(0.8)"/><use href="#petal" transform="translate(408 150) rotate(-2) scale(0.78)"/>
  <text x="18" y="172" fill="#6f6a60" font-family="'SFMono-Regular',Consolas,'Liberation Mono',monospace" font-size="9.8" font-weight="600" letter-spacing="0.7">AI / ROBOTICS / PRODUCT / SOFTWARE</text>
</svg>